<mxfile host="app.diagrams.net" modified="2023-06-09T11:08:16.488Z" agent="Mozilla/5.0 (Windows NT 10.0; Win64; x64) AppleWebKit/537.36 (KHTML, like Gecko) Chrome/114.0.0.0 Safari/537.36" etag="_m3jwlGASw38H-u5HFNn" version="21.3.8" type="device">
  <diagram name="Page-1" id="08XfXLkqNHwqpOTfYeyC">
    <mxGraphModel dx="608" dy="425" grid="1" gridSize="10" guides="1" tooltips="1" connect="1" arrows="1" fold="1" page="1" pageScale="1" pageWidth="850" pageHeight="1100" math="0" shadow="0">
      <root>
        <mxCell id="0" />
        <mxCell id="1" parent="0" />
        <mxCell id="GYMmYhAK6eQK2kLWFOtq-1" value="Clothing" style="swimlane;whiteSpace=wrap;html=1;" vertex="1" parent="1">
          <mxGeometry x="90" y="60" width="100" height="110" as="geometry" />
        </mxCell>
        <mxCell id="GYMmYhAK6eQK2kLWFOtq-2" value="&lt;u&gt;&lt;b&gt;ID&lt;/b&gt;&lt;/u&gt;" style="text;html=1;align=center;verticalAlign=middle;resizable=0;points=[];autosize=1;strokeColor=none;fillColor=none;" vertex="1" parent="GYMmYhAK6eQK2kLWFOtq-1">
          <mxGeometry y="20" width="40" height="30" as="geometry" />
        </mxCell>
        <mxCell id="GYMmYhAK6eQK2kLWFOtq-5" value="name" style="text;html=1;align=center;verticalAlign=middle;resizable=0;points=[];autosize=1;strokeColor=none;fillColor=none;" vertex="1" parent="GYMmYhAK6eQK2kLWFOtq-1">
          <mxGeometry y="40" width="50" height="30" as="geometry" />
        </mxCell>
        <mxCell id="GYMmYhAK6eQK2kLWFOtq-15" style="edgeStyle=orthogonalEdgeStyle;rounded=0;orthogonalLoop=1;jettySize=auto;html=1;exitX=0;exitY=0.5;exitDx=0;exitDy=0;entryX=1;entryY=0.5;entryDx=0;entryDy=0;endArrow=none;endFill=0;" edge="1" parent="1" source="GYMmYhAK6eQK2kLWFOtq-7" target="GYMmYhAK6eQK2kLWFOtq-1">
          <mxGeometry relative="1" as="geometry" />
        </mxCell>
        <mxCell id="GYMmYhAK6eQK2kLWFOtq-18" style="edgeStyle=orthogonalEdgeStyle;rounded=0;orthogonalLoop=1;jettySize=auto;html=1;exitX=1;exitY=0.5;exitDx=0;exitDy=0;entryX=0;entryY=0.5;entryDx=0;entryDy=0;endArrow=none;endFill=0;" edge="1" parent="1" source="GYMmYhAK6eQK2kLWFOtq-7" target="GYMmYhAK6eQK2kLWFOtq-9">
          <mxGeometry relative="1" as="geometry" />
        </mxCell>
        <mxCell id="GYMmYhAK6eQK2kLWFOtq-7" value="Has" style="rhombus;whiteSpace=wrap;html=1;" vertex="1" parent="1">
          <mxGeometry x="250" y="75" width="140" height="80" as="geometry" />
        </mxCell>
        <mxCell id="GYMmYhAK6eQK2kLWFOtq-9" value="Category" style="swimlane;whiteSpace=wrap;html=1;" vertex="1" parent="1">
          <mxGeometry x="470" y="60" width="100" height="110" as="geometry" />
        </mxCell>
        <mxCell id="GYMmYhAK6eQK2kLWFOtq-10" value="&lt;u&gt;&lt;b&gt;ID&lt;/b&gt;&lt;/u&gt;" style="text;html=1;align=center;verticalAlign=middle;resizable=0;points=[];autosize=1;strokeColor=none;fillColor=none;" vertex="1" parent="GYMmYhAK6eQK2kLWFOtq-9">
          <mxGeometry y="20" width="40" height="30" as="geometry" />
        </mxCell>
        <mxCell id="GYMmYhAK6eQK2kLWFOtq-11" value="name" style="text;html=1;align=center;verticalAlign=middle;resizable=0;points=[];autosize=1;strokeColor=none;fillColor=none;" vertex="1" parent="GYMmYhAK6eQK2kLWFOtq-9">
          <mxGeometry y="40" width="50" height="30" as="geometry" />
        </mxCell>
      </root>
    </mxGraphModel>
  </diagram>
</mxfile>
